<?xml version="1.0" encoding="UTF-8" standalone="no"?>
<!DOCTYPE svg PUBLIC "-//W3C//DTD SVG 1.1//EN"
 "http://www.w3.org/Graphics/SVG/1.1/DTD/svg11.dtd">
<!-- Generated by graphviz version 2.47.0 (20210316.0004)
 -->
<!-- Title: dependencies Pages: 1 -->
<svg width="554pt" height="211pt"
 viewBox="0.00 0.00 554.00 211.00" xmlns="http://www.w3.org/2000/svg" xmlns:xlink="http://www.w3.org/1999/xlink">
<g id="graph0" class="graph" transform="scale(1 1) rotate(0) translate(4 207)">
<title>dependencies</title>
<polygon fill="white" stroke="transparent" points="-4,4 -4,-207 550,-207 550,4 -4,4"/>
<text text-anchor="start" x="252.01" y="-42.4" font-family="Times-12" font-weight="bold" font-size="14.00">Legend</text>
<polygon fill="#ffffb3" stroke="transparent" points="39,-10 39,-30 59,-30 59,-10 39,-10"/>
<text text-anchor="start" x="62.63" y="-15.4" font-family="Times-12" font-size="14.00"> &#160;Declarations</text>
<polygon fill="#8dd3c7" stroke="transparent" points="152,-10 152,-30 172,-30 172,-10 152,-10"/>
<text text-anchor="start" x="175.73" y="-15.4" font-family="Times-12" font-size="14.00"> &#160;Module</text>
<polygon fill="#80b1d3" stroke="transparent" points="238,-10 238,-30 258,-30 258,-10 238,-10"/>
<text text-anchor="start" x="261.78" y="-15.4" font-family="Times-12" font-size="14.00"> &#160;Bootstrap</text>
<polygon fill="#fdb462" stroke="transparent" points="335,-10 335,-30 355,-30 355,-10 335,-10"/>
<text text-anchor="start" x="358.67" y="-15.4" font-family="Times-12" font-size="14.00"> &#160;Providers</text>
<polygon fill="#fb8072" stroke="transparent" points="431,-10 431,-30 451,-30 451,-10 431,-10"/>
<text text-anchor="start" x="454.73" y="-15.4" font-family="Times-12" font-size="14.00"> &#160;Exports</text>
<g id="clust1" class="cluster">
<title>cluster_RenderModule</title>
<polygon fill="none" stroke="black" stroke-dasharray="1,5" points="8,-70 8,-195 538,-195 538,-70 8,-70"/>
</g>
<g id="clust6" class="cluster">
<title>cluster_RenderModule_providers</title>
<polygon fill="none" stroke="black" points="16,-78 16,-130 530,-130 530,-78 16,-78"/>
</g>
<!-- ChartConfigService -->
<g id="node1" class="node">
<title>ChartConfigService</title>
<ellipse fill="#fdb462" stroke="black" cx="434" cy="-104" rx="88.04" ry="18"/>
<text text-anchor="middle" x="434" y="-99.8" font-family="Times,serif" font-size="14.00">ChartConfigService</text>
</g>
<!-- RenderModule -->
<g id="node4" class="node">
<title>RenderModule</title>
<polygon fill="#8dd3c7" stroke="black" points="302.98,-187 299.98,-191 278.98,-191 275.98,-187 203.02,-187 203.02,-151 302.98,-151 302.98,-187"/>
<text text-anchor="middle" x="253" y="-164.8" font-family="Times,serif" font-size="14.00">RenderModule</text>
</g>
<!-- ChartConfigService&#45;&gt;RenderModule -->
<g id="edge1" class="edge">
<title>ChartConfigService&#45;&gt;RenderModule</title>
<path fill="none" stroke="black" d="M434,-122.11C434,-141.34 434,-169 434,-169 434,-169 313.42,-169 313.42,-169"/>
<polygon fill="black" stroke="black" points="313.42,-165.5 303.42,-169 313.42,-172.5 313.42,-165.5"/>
</g>
<!-- DatafilesService -->
<g id="node2" class="node">
<title>DatafilesService</title>
<ellipse fill="#fdb462" stroke="black" cx="253" cy="-104" rx="74.69" ry="18"/>
<text text-anchor="middle" x="253" y="-99.8" font-family="Times,serif" font-size="14.00">DatafilesService</text>
</g>
<!-- DatafilesService&#45;&gt;RenderModule -->
<g id="edge2" class="edge">
<title>DatafilesService&#45;&gt;RenderModule</title>
<path fill="none" stroke="black" d="M253,-122.11C253,-122.11 253,-140.99 253,-140.99"/>
<polygon fill="black" stroke="black" points="249.5,-140.99 253,-150.99 256.5,-140.99 249.5,-140.99"/>
</g>
<!-- RenderService -->
<g id="node3" class="node">
<title>RenderService</title>
<ellipse fill="#fdb462" stroke="black" cx="92" cy="-104" rx="67.75" ry="18"/>
<text text-anchor="middle" x="92" y="-99.8" font-family="Times,serif" font-size="14.00">RenderService</text>
</g>
<!-- RenderService&#45;&gt;RenderModule -->
<g id="edge3" class="edge">
<title>RenderService&#45;&gt;RenderModule</title>
<path fill="none" stroke="black" d="M92,-122.11C92,-141.34 92,-169 92,-169 92,-169 192.94,-169 192.94,-169"/>
<polygon fill="black" stroke="black" points="192.94,-172.5 202.94,-169 192.94,-165.5 192.94,-172.5"/>
</g>
</g>
</svg>
