<?xml version="1.0" encoding="UTF-8" standalone="no"?>
<!DOCTYPE svg PUBLIC "-//W3C//DTD SVG 1.1//EN"
 "http://www.w3.org/Graphics/SVG/1.1/DTD/svg11.dtd">
<!-- Generated by graphviz version 2.47.0 (20210316.0004)
 -->
<!-- Title: dependencies Pages: 1 -->
<svg width="574pt" height="211pt"
 viewBox="0.00 0.00 574.00 211.00" xmlns="http://www.w3.org/2000/svg" xmlns:xlink="http://www.w3.org/1999/xlink">
<g id="graph0" class="graph" transform="scale(1 1) rotate(0) translate(4 207)">
<title>dependencies</title>
<polygon fill="white" stroke="transparent" points="-4,4 -4,-207 570,-207 570,4 -4,4"/>
<text text-anchor="start" x="262.01" y="-42.4" font-family="Times-12" font-weight="bold" font-size="14.00">Legend</text>
<polygon fill="#ffffb3" stroke="transparent" points="49,-10 49,-30 69,-30 69,-10 49,-10"/>
<text text-anchor="start" x="72.63" y="-15.4" font-family="Times-12" font-size="14.00"> &#160;Declarations</text>
<polygon fill="#8dd3c7" stroke="transparent" points="162,-10 162,-30 182,-30 182,-10 162,-10"/>
<text text-anchor="start" x="185.73" y="-15.4" font-family="Times-12" font-size="14.00"> &#160;Module</text>
<polygon fill="#80b1d3" stroke="transparent" points="248,-10 248,-30 268,-30 268,-10 248,-10"/>
<text text-anchor="start" x="271.78" y="-15.4" font-family="Times-12" font-size="14.00"> &#160;Bootstrap</text>
<polygon fill="#fdb462" stroke="transparent" points="345,-10 345,-30 365,-30 365,-10 345,-10"/>
<text text-anchor="start" x="368.67" y="-15.4" font-family="Times-12" font-size="14.00"> &#160;Providers</text>
<polygon fill="#fb8072" stroke="transparent" points="441,-10 441,-30 461,-30 461,-10 441,-10"/>
<text text-anchor="start" x="464.73" y="-15.4" font-family="Times-12" font-size="14.00"> &#160;Exports</text>
<g id="clust1" class="cluster">
<title>cluster_DatafilesModule</title>
<polygon fill="none" stroke="black" stroke-dasharray="1,5" points="8,-70 8,-195 558,-195 558,-70 8,-70"/>
</g>
<g id="clust6" class="cluster">
<title>cluster_DatafilesModule_providers</title>
<polygon fill="none" stroke="black" points="16,-78 16,-130 550,-130 550,-78 16,-78"/>
</g>
<!-- DatafilesService -->
<g id="node1" class="node">
<title>DatafilesService</title>
<ellipse fill="#fdb462" stroke="black" cx="467" cy="-104" rx="74.69" ry="18"/>
<text text-anchor="middle" x="467" y="-99.8" font-family="Times,serif" font-size="14.00">DatafilesService</text>
</g>
<!-- DatafilesModule -->
<g id="node4" class="node">
<title>DatafilesModule</title>
<polygon fill="#8dd3c7" stroke="black" points="353.08,-187 350.08,-191 329.08,-191 326.08,-187 242.92,-187 242.92,-151 353.08,-151 353.08,-187"/>
<text text-anchor="middle" x="298" y="-164.8" font-family="Times,serif" font-size="14.00">DatafilesModule</text>
</g>
<!-- DatafilesService&#45;&gt;DatafilesModule -->
<g id="edge1" class="edge">
<title>DatafilesService&#45;&gt;DatafilesModule</title>
<path fill="none" stroke="black" d="M467,-122.11C467,-141.34 467,-169 467,-169 467,-169 363.34,-169 363.34,-169"/>
<polygon fill="black" stroke="black" points="363.34,-165.5 353.34,-169 363.34,-172.5 363.34,-165.5"/>
</g>
<!-- FilenameService -->
<g id="node2" class="node">
<title>FilenameService</title>
<ellipse fill="#fdb462" stroke="black" cx="298" cy="-104" rx="75.86" ry="18"/>
<text text-anchor="middle" x="298" y="-99.8" font-family="Times,serif" font-size="14.00">FilenameService</text>
</g>
<!-- FilenameService&#45;&gt;DatafilesModule -->
<g id="edge2" class="edge">
<title>FilenameService&#45;&gt;DatafilesModule</title>
<path fill="none" stroke="black" d="M298,-122.11C298,-122.11 298,-140.99 298,-140.99"/>
<polygon fill="black" stroke="black" points="294.5,-140.99 298,-150.99 301.5,-140.99 294.5,-140.99"/>
</g>
<!-- NotificationsService -->
<g id="node3" class="node">
<title>NotificationsService</title>
<ellipse fill="#fdb462" stroke="black" cx="114" cy="-104" rx="90.32" ry="18"/>
<text text-anchor="middle" x="114" y="-99.8" font-family="Times,serif" font-size="14.00">NotificationsService</text>
</g>
<!-- NotificationsService&#45;&gt;DatafilesModule -->
<g id="edge3" class="edge">
<title>NotificationsService&#45;&gt;DatafilesModule</title>
<path fill="none" stroke="black" d="M114,-122.11C114,-141.34 114,-169 114,-169 114,-169 232.79,-169 232.79,-169"/>
<polygon fill="black" stroke="black" points="232.79,-172.5 242.79,-169 232.79,-165.5 232.79,-172.5"/>
</g>
</g>
</svg>
