<?xml version="1.0" encoding="UTF-8" standalone="no"?>
<!DOCTYPE svg PUBLIC "-//W3C//DTD SVG 1.1//EN"
 "http://www.w3.org/Graphics/SVG/1.1/DTD/svg11.dtd">
<!-- Generated by graphviz version 2.47.0 (20210316.0004)
 -->
<!-- Title: dependencies Pages: 1 -->
<svg width="589pt" height="211pt"
 viewBox="0.00 0.00 589.00 211.00" xmlns="http://www.w3.org/2000/svg" xmlns:xlink="http://www.w3.org/1999/xlink">
<g id="graph0" class="graph" transform="scale(1 1) rotate(0) translate(4 207)">
<title>dependencies</title>
<polygon fill="white" stroke="transparent" points="-4,4 -4,-207 585,-207 585,4 -4,4"/>
<text text-anchor="start" x="269.51" y="-42.4" font-family="Times-12" font-weight="bold" font-size="14.00">Legend</text>
<polygon fill="#ffffb3" stroke="transparent" points="56.5,-10 56.5,-30 76.5,-30 76.5,-10 56.5,-10"/>
<text text-anchor="start" x="80.13" y="-15.4" font-family="Times-12" font-size="14.00"> &#160;Declarations</text>
<polygon fill="#8dd3c7" stroke="transparent" points="169.5,-10 169.5,-30 189.5,-30 189.5,-10 169.5,-10"/>
<text text-anchor="start" x="193.23" y="-15.4" font-family="Times-12" font-size="14.00"> &#160;Module</text>
<polygon fill="#80b1d3" stroke="transparent" points="255.5,-10 255.5,-30 275.5,-30 275.5,-10 255.5,-10"/>
<text text-anchor="start" x="279.28" y="-15.4" font-family="Times-12" font-size="14.00"> &#160;Bootstrap</text>
<polygon fill="#fdb462" stroke="transparent" points="352.5,-10 352.5,-30 372.5,-30 372.5,-10 352.5,-10"/>
<text text-anchor="start" x="376.17" y="-15.4" font-family="Times-12" font-size="14.00"> &#160;Providers</text>
<polygon fill="#fb8072" stroke="transparent" points="448.5,-10 448.5,-30 468.5,-30 468.5,-10 448.5,-10"/>
<text text-anchor="start" x="472.23" y="-15.4" font-family="Times-12" font-size="14.00"> &#160;Exports</text>
<g id="clust1" class="cluster">
<title>cluster_TransactionModule</title>
<polygon fill="none" stroke="black" stroke-dasharray="1,5" points="8,-70 8,-195 573,-195 573,-70 8,-70"/>
</g>
<g id="clust6" class="cluster">
<title>cluster_TransactionModule_providers</title>
<polygon fill="none" stroke="black" points="16,-78 16,-130 565,-130 565,-78 16,-78"/>
</g>
<!-- ChartConfigService -->
<g id="node1" class="node">
<title>ChartConfigService</title>
<ellipse fill="#fdb462" stroke="black" cx="469" cy="-104" rx="88.04" ry="18"/>
<text text-anchor="middle" x="469" y="-99.8" font-family="Times,serif" font-size="14.00">ChartConfigService</text>
</g>
<!-- TransactionModule -->
<g id="node4" class="node">
<title>TransactionModule</title>
<polygon fill="#8dd3c7" stroke="black" points="350.63,-187 347.63,-191 326.63,-191 323.63,-187 225.37,-187 225.37,-151 350.63,-151 350.63,-187"/>
<text text-anchor="middle" x="288" y="-164.8" font-family="Times,serif" font-size="14.00">TransactionModule</text>
</g>
<!-- ChartConfigService&#45;&gt;TransactionModule -->
<g id="edge1" class="edge">
<title>ChartConfigService&#45;&gt;TransactionModule</title>
<path fill="none" stroke="black" d="M469,-122.11C469,-141.34 469,-169 469,-169 469,-169 360.8,-169 360.8,-169"/>
<polygon fill="black" stroke="black" points="360.8,-165.5 350.8,-169 360.8,-172.5 360.8,-165.5"/>
</g>
<!-- DatafilesService -->
<g id="node2" class="node">
<title>DatafilesService</title>
<ellipse fill="#fdb462" stroke="black" cx="288" cy="-104" rx="74.69" ry="18"/>
<text text-anchor="middle" x="288" y="-99.8" font-family="Times,serif" font-size="14.00">DatafilesService</text>
</g>
<!-- DatafilesService&#45;&gt;TransactionModule -->
<g id="edge2" class="edge">
<title>DatafilesService&#45;&gt;TransactionModule</title>
<path fill="none" stroke="black" d="M288,-122.11C288,-122.11 288,-140.99 288,-140.99"/>
<polygon fill="black" stroke="black" points="284.5,-140.99 288,-150.99 291.5,-140.99 284.5,-140.99"/>
</g>
<!-- TransactionService -->
<g id="node3" class="node">
<title>TransactionService</title>
<ellipse fill="#fdb462" stroke="black" cx="110" cy="-104" rx="85.65" ry="18"/>
<text text-anchor="middle" x="110" y="-99.8" font-family="Times,serif" font-size="14.00">TransactionService</text>
</g>
<!-- TransactionService&#45;&gt;TransactionModule -->
<g id="edge3" class="edge">
<title>TransactionService&#45;&gt;TransactionModule</title>
<path fill="none" stroke="black" d="M110,-122.11C110,-141.34 110,-169 110,-169 110,-169 215.24,-169 215.24,-169"/>
<polygon fill="black" stroke="black" points="215.24,-172.5 225.24,-169 215.24,-165.5 215.24,-172.5"/>
</g>
</g>
</svg>
