<?xml version="1.0" encoding="UTF-8" standalone="no"?>
<!DOCTYPE svg PUBLIC "-//W3C//DTD SVG 1.1//EN"
 "http://www.w3.org/Graphics/SVG/1.1/DTD/svg11.dtd">
<!-- Generated by graphviz version 2.47.0 (20210316.0004)
 -->
<!-- Title: dependencies Pages: 1 -->
<svg width="778pt" height="211pt"
 viewBox="0.00 0.00 778.00 211.00" xmlns="http://www.w3.org/2000/svg" xmlns:xlink="http://www.w3.org/1999/xlink">
<g id="graph0" class="graph" transform="scale(1 1) rotate(0) translate(4 207)">
<title>dependencies</title>
<polygon fill="white" stroke="transparent" points="-4,4 -4,-207 774,-207 774,4 -4,4"/>
<text text-anchor="start" x="364.01" y="-42.4" font-family="Times-12" font-weight="bold" font-size="14.00">Legend</text>
<polygon fill="#ffffb3" stroke="transparent" points="151,-10 151,-30 171,-30 171,-10 151,-10"/>
<text text-anchor="start" x="174.63" y="-15.4" font-family="Times-12" font-size="14.00"> &#160;Declarations</text>
<polygon fill="#8dd3c7" stroke="transparent" points="264,-10 264,-30 284,-30 284,-10 264,-10"/>
<text text-anchor="start" x="287.73" y="-15.4" font-family="Times-12" font-size="14.00"> &#160;Module</text>
<polygon fill="#80b1d3" stroke="transparent" points="350,-10 350,-30 370,-30 370,-10 350,-10"/>
<text text-anchor="start" x="373.78" y="-15.4" font-family="Times-12" font-size="14.00"> &#160;Bootstrap</text>
<polygon fill="#fdb462" stroke="transparent" points="447,-10 447,-30 467,-30 467,-10 447,-10"/>
<text text-anchor="start" x="470.67" y="-15.4" font-family="Times-12" font-size="14.00"> &#160;Providers</text>
<polygon fill="#fb8072" stroke="transparent" points="543,-10 543,-30 563,-30 563,-10 543,-10"/>
<text text-anchor="start" x="566.73" y="-15.4" font-family="Times-12" font-size="14.00"> &#160;Exports</text>
<g id="clust1" class="cluster">
<title>cluster_ValidationModule</title>
<polygon fill="none" stroke="black" stroke-dasharray="1,5" points="8,-70 8,-195 762,-195 762,-70 8,-70"/>
</g>
<g id="clust6" class="cluster">
<title>cluster_ValidationModule_providers</title>
<polygon fill="none" stroke="black" points="16,-78 16,-130 754,-130 754,-78 16,-78"/>
</g>
<!-- ChartConfigService -->
<g id="node1" class="node">
<title>ChartConfigService</title>
<ellipse fill="#fdb462" stroke="black" cx="658" cy="-104" rx="88.04" ry="18"/>
<text text-anchor="middle" x="658" y="-99.8" font-family="Times,serif" font-size="14.00">ChartConfigService</text>
</g>
<!-- ValidationModule -->
<g id="node5" class="node">
<title>ValidationModule</title>
<polygon fill="#8dd3c7" stroke="black" points="444.15,-187 441.15,-191 420.15,-191 417.15,-187 325.85,-187 325.85,-151 444.15,-151 444.15,-187"/>
<text text-anchor="middle" x="385" y="-164.8" font-family="Times,serif" font-size="14.00">ValidationModule</text>
</g>
<!-- ChartConfigService&#45;&gt;ValidationModule -->
<g id="edge1" class="edge">
<title>ChartConfigService&#45;&gt;ValidationModule</title>
<path fill="none" stroke="black" d="M658,-122.11C658,-141.34 658,-169 658,-169 658,-169 454.24,-169 454.24,-169"/>
<polygon fill="black" stroke="black" points="454.24,-165.5 444.24,-169 454.24,-172.5 454.24,-165.5"/>
</g>
<!-- DatafilesService -->
<g id="node2" class="node">
<title>DatafilesService</title>
<ellipse fill="#fdb462" stroke="black" cx="477" cy="-104" rx="74.69" ry="18"/>
<text text-anchor="middle" x="477" y="-99.8" font-family="Times,serif" font-size="14.00">DatafilesService</text>
</g>
<!-- DatafilesService&#45;&gt;ValidationModule -->
<g id="edge2" class="edge">
<title>DatafilesService&#45;&gt;ValidationModule</title>
<path fill="none" stroke="black" d="M423.24,-116.53C423.24,-116.53 423.24,-140.85 423.24,-140.85"/>
<polygon fill="black" stroke="black" points="419.74,-140.85 423.24,-150.85 426.74,-140.85 419.74,-140.85"/>
</g>
<!-- NotificationsService -->
<g id="node3" class="node">
<title>NotificationsService</title>
<ellipse fill="#fdb462" stroke="black" cx="294" cy="-104" rx="90.32" ry="18"/>
<text text-anchor="middle" x="294" y="-99.8" font-family="Times,serif" font-size="14.00">NotificationsService</text>
</g>
<!-- NotificationsService&#45;&gt;ValidationModule -->
<g id="edge3" class="edge">
<title>NotificationsService&#45;&gt;ValidationModule</title>
<path fill="none" stroke="black" d="M355.04,-117.47C355.04,-117.47 355.04,-140.86 355.04,-140.86"/>
<polygon fill="black" stroke="black" points="351.54,-140.86 355.04,-150.86 358.54,-140.86 351.54,-140.86"/>
</g>
<!-- ValidationService -->
<g id="node4" class="node">
<title>ValidationService</title>
<ellipse fill="#fdb462" stroke="black" cx="105" cy="-104" rx="80.51" ry="18"/>
<text text-anchor="middle" x="105" y="-99.8" font-family="Times,serif" font-size="14.00">ValidationService</text>
</g>
<!-- ValidationService&#45;&gt;ValidationModule -->
<g id="edge4" class="edge">
<title>ValidationService&#45;&gt;ValidationModule</title>
<path fill="none" stroke="black" d="M105,-122.11C105,-141.34 105,-169 105,-169 105,-169 315.62,-169 315.62,-169"/>
<polygon fill="black" stroke="black" points="315.62,-172.5 325.62,-169 315.62,-165.5 315.62,-172.5"/>
</g>
</g>
</svg>
